<svg xmlns="http://www.w3.org/2000/svg" xmlns:svg="http://www.w3.org/2000/svg" xmlns:xlink="http://www.w3.org/1999/xlink" id="svg2707" width="32pt" height="32pt" version="1.1" viewBox="0 0 32 32"><metadata id="metadata2717"/><defs id="defs2715"><linearGradient id="linearGradient2721"><stop style="stop-color:gray;stop-opacity:1" id="stop2723" offset="0"/><stop id="stop2729" offset=".5" style="stop-color:#000;stop-opacity:1"/><stop style="stop-color:gray;stop-opacity:1" id="stop2731" offset="1"/></linearGradient><linearGradient id="linearGradient2727" x1="4.987" x2="4.848" y1="3.463" y2="27.29" gradientUnits="userSpaceOnUse" xlink:href="#linearGradient2721"/><filter id="filter3673"><feGaussianBlur id="feGaussianBlur3675" stdDeviation=".574"/></filter><filter id="filter3236"><feGaussianBlur id="feGaussianBlur3238" stdDeviation=".287"/></filter></defs><g id="g3184" style="filter:url(#filter3236)"><rect id="rect3619" width="19.885" height="12.892" x="5.147" y="9.036" ry="3.367" style="fill:none;fill-opacity:1;fill-rule:evenodd;stroke:#8c8c8c;stroke-width:2.3269543600000002;stroke-linecap:butt;stroke-linejoin:bevel;stroke-miterlimit:4;stroke-dasharray:none;stroke-opacity:1"/><path style="fill:#8c8c8c;fill-opacity:1;fill-rule:evenodd;stroke:#8c8c8c;stroke-width:1.0446074px;stroke-linecap:butt;stroke-linejoin:round;stroke-opacity:1" id="path3621" d="M 24.645084,14.06435 C 31.59481,8.5432088 31.645538,8.4916084 31.645538,8.4916084 L 31.746995,22.733058 L 24.695812,17.366715 L 24.645084,14.06435 z"/><rect style="fill:none;fill-opacity:1;stroke:#8c8c8c;stroke-width:1.6637095200000001;stroke-linecap:butt;stroke-linejoin:miter;stroke-miterlimit:4;stroke-dasharray:none;stroke-opacity:1" id="rect3623" width="5.689" height="5.404" x="16.072" y=".895" ry="2.702" transform="matrix(0.7138781,0.70027,-0.7618171,0.6477921,0,0)"/><path style="fill:none;fill-opacity:1;fill-rule:evenodd;stroke:#8c8c8c;stroke-width:2.2616708299999999;stroke-linecap:round;stroke-linejoin:round;stroke-miterlimit:4;stroke-dasharray:none;stroke-opacity:1" id="path3625" d="M 8.730507,27.845346 L 15.224329,21.937299 L 22.020189,28.282978 L 21.919509,28.195452"/><path style="fill:#8c8c8c;fill-opacity:1;fill-rule:evenodd;stroke:#8c8c8c;stroke-width:1.0446074px;stroke-linecap:butt;stroke-linejoin:round;stroke-opacity:1" id="path3627" d="M 7.245404,8.285211 L 1.563876,7.6660176 L 7.194676,1.9384781 L 7.34686,5.0860449 L 10.03544,7.9756143 L 6.941037,8.285211 L 6.839581,8.4916088"/><rect id="rect3629" width="5.689" height="5.404" x="21.547" y="-5.098" ry="2.702" transform="matrix(0.7138781,0.70027,-0.7618171,0.6477921,0,0)" style="fill:none;fill-opacity:1;stroke:#8c8c8c;stroke-width:1.6637095200000001;stroke-linecap:butt;stroke-linejoin:miter;stroke-miterlimit:4;stroke-dasharray:none;stroke-opacity:1"/></g><g id="g3683"><rect style="fill:none;fill-opacity:1;fill-rule:evenodd;stroke:#000;stroke-width:2.3269543600000002;stroke-linecap:butt;stroke-linejoin:bevel;stroke-miterlimit:4;stroke-dasharray:none;stroke-opacity:1" id="rect3563" width="19.885" height="12.892" x="4.532" y="8.562" ry="3.367"/><path id="path3565" d="M 24.029647,13.590937 C 30.979373,8.0697959 31.030101,8.0181955 31.030101,8.0181955 L 31.131558,22.259645 L 24.080375,16.893302 L 24.029647,13.590937 z" style="fill:#000;fill-opacity:1;fill-rule:evenodd;stroke:#000;stroke-width:1.0446074px;stroke-linecap:butt;stroke-linejoin:round;stroke-opacity:1"/><rect id="rect3569" width="5.689" height="5.404" x="15.309" y=".988" ry="2.702" transform="matrix(0.7138781,0.70027,-0.7618171,0.6477921,0,0)" style="fill:none;fill-opacity:1;stroke:#000;stroke-width:1.6637095200000001;stroke-linecap:butt;stroke-linejoin:miter;stroke-miterlimit:4;stroke-dasharray:none;stroke-opacity:1"/><path id="path3583" d="M 8.1150699,27.371933 L 14.608892,21.463886 L 21.404752,27.809565 L 21.304072,27.722039" style="fill:none;fill-rule:evenodd;stroke:#000;stroke-width:2.26167083;stroke-linecap:round;stroke-linejoin:round;stroke-miterlimit:4;stroke-dasharray:none;stroke-opacity:1"/><path id="path3585" d="M 6.6299671,7.8117981 L 0.94843886,7.1926047 L 6.5792392,1.4650652 L 6.731423,4.612632 L 9.4200033,7.5022014 L 6.3255996,7.8117981 L 6.2241437,8.0181959" style="fill:#000;fill-opacity:1;fill-rule:evenodd;stroke:#000;stroke-width:1.0446074px;stroke-linecap:butt;stroke-linejoin:round;stroke-opacity:1"/><rect style="fill:none;fill-opacity:1;stroke:#000;stroke-width:1.6637095200000001;stroke-linecap:butt;stroke-linejoin:miter;stroke-miterlimit:4;stroke-dasharray:none;stroke-opacity:1" id="rect3607" width="5.689" height="5.404" x="20.785" y="-5.004" ry="2.702" transform="matrix(0.7138781,0.70027,-0.7618171,0.6477921,0,0)"/></g></svg>