<svg xmlns="http://www.w3.org/2000/svg" xmlns:svg="http://www.w3.org/2000/svg" xmlns:xlink="http://www.w3.org/1999/xlink" id="svg642" width="48" height="48" version="1.0" viewBox="0 0 108.086 106.815"><metadata id="metadata91"/><defs id="defs820"><linearGradient id="linearGradient3639"><stop id="stop3641" offset="0" style="stop-color:#8e5600;stop-opacity:1"/><stop id="stop3643" offset="1" style="stop-color:#fa0;stop-opacity:1"/></linearGradient><linearGradient id="XMLID_11_" x1="49.236" x2="29.916" y1="130.191" y2="40.522" gradientTransform="matrix(0.8996426,-0.2579275,0,0.8996426,4.5179314,-18.187341)" gradientUnits="userSpaceOnUse"><stop id="stop654" offset=".006" style="stop-color:#8e5600;stop-opacity:1"/><stop id="stop668" offset="1" style="stop-color:#ffbc00;stop-opacity:1"/></linearGradient><linearGradient id="XMLID_12_" x1="63.551" x2="81.834" y1="136.052" y2="65.694" gradientTransform="matrix(0.8996426,-0.2579275,0,0.8996426,4.5179314,-18.187341)" gradientUnits="userSpaceOnUse"><stop id="stop673" offset=".107" style="stop-color:#966200;stop-opacity:1"/><stop id="stop675" offset=".594" style="stop-color:#d99c13;stop-opacity:1"/><stop id="stop677" offset="1" style="stop-color:#ffd526;stop-opacity:1"/></linearGradient><linearGradient id="XMLID_20_" x1="47.52" x2="60.9" y1="137.321" y2="92.15" gradientTransform="matrix(0.8996426,-0.2579275,0,0.8996426,4.5179314,-18.187341)" gradientUnits="userSpaceOnUse"><stop id="stop805" offset=".006" style="stop-color:#cc8f00;stop-opacity:1"/><stop id="stop3647" offset=".149" style="stop-color:#e9a90d;stop-opacity:1"/><stop id="stop3649" offset=".446" style="stop-color:#f0ba33;stop-opacity:1"/><stop id="stop815" offset="1" style="stop-color:#ffdf71;stop-opacity:1"/></linearGradient><linearGradient id="XMLID_13_" x1="46.753" x2="64.773" y1="25.93" y2="89.974" gradientTransform="matrix(0.8996426,0,0,0.8996426,4.5179314,2.8811192)" gradientUnits="userSpaceOnUse"><stop id="stop683" offset="0" style="stop-color:#b0bec4;stop-opacity:1"/><stop id="stop685" offset=".097" style="stop-color:#9eadb3;stop-opacity:1"/><stop id="stop687" offset=".529" style="stop-color:#51656e;stop-opacity:1"/><stop id="stop689" offset=".841" style="stop-color:#213844;stop-opacity:1"/><stop id="stop691" offset="1" style="stop-color:#102733;stop-opacity:1"/></linearGradient><linearGradient id="XMLID_14_" x1="62.942" x2="1.834" y1="40.984" y2="47.726" gradientTransform="matrix(0.8996426,0,0,0.8996426,4.5179314,2.8811192)" gradientUnits="userSpaceOnUse"><stop id="stop698" offset=".006" style="stop-color:#949494;stop-opacity:1"/><stop id="stop700" offset=".061" style="stop-color:#989898;stop-opacity:1"/><stop id="stop702" offset=".685" style="stop-color:#cacaca;stop-opacity:1"/><stop id="stop704" offset="1" style="stop-color:#ddd;stop-opacity:1"/></linearGradient><linearGradient id="XMLID_15_" x1="231.365" x2="287.41" y1="56.624" y2="132.906" gradientTransform="matrix(-0.8996426,-0.5216128,0,0.8996426,293.0765,86.360845)" gradientUnits="userSpaceOnUse"><stop id="stop709" offset="0" style="stop-color:#62666c;stop-opacity:1"/><stop id="stop711" offset=".287" style="stop-color:#d9dbdd;stop-opacity:1"/><stop id="stop713" offset=".543" style="stop-color:#f7f8f9;stop-opacity:1"/><stop id="stop715" offset=".825" style="stop-color:#fff;stop-opacity:1"/><stop id="stop717" offset="1" style="stop-color:#fff;stop-opacity:1"/></linearGradient><linearGradient id="XMLID_16_" x1="230.438" x2="239.386" y1="74.773" y2="83.118" gradientTransform="matrix(-0.8945146,-0.5354673,-8.996426e-5,0.9047706,290.09679,86.617243)" gradientUnits="userSpaceOnUse"><stop id="stop745" offset="0" style="stop-color:#adb5b5;stop-opacity:1"/><stop id="stop747" offset=".101" style="stop-color:#c8cccf;stop-opacity:1"/><stop id="stop749" offset=".131" style="stop-color:#cbd0d2;stop-opacity:1"/><stop id="stop751" offset=".51" style="stop-color:#f7f9fa;stop-opacity:1"/><stop id="stop753" offset=".813" style="stop-color:#fff;stop-opacity:1"/><stop id="stop755" offset="1" style="stop-color:#fff;stop-opacity:1"/></linearGradient><linearGradient id="XMLID_17_" x1="255.973" x2="229.517" y1="58.238" y2="88.616" gradientTransform="matrix(-0.8996426,-0.5216128,0,0.8996426,293.0765,86.360845)" gradientUnits="userSpaceOnUse"><stop id="stop760" offset="0" style="stop-color:#b0bec4;stop-opacity:1"/><stop id="stop762" offset=".097" style="stop-color:#9eadb3;stop-opacity:1"/><stop id="stop764" offset=".529" style="stop-color:#51656e;stop-opacity:1"/><stop id="stop766" offset=".841" style="stop-color:#213844;stop-opacity:1"/><stop id="stop768" offset="1" style="stop-color:#102733;stop-opacity:1"/></linearGradient><linearGradient id="XMLID_18_" x1="246.046" x2="241.058" y1="64.892" y2="60.075" gradientTransform="matrix(-0.8996426,-0.5216128,0,0.8996426,293.0765,86.360845)" gradientUnits="userSpaceOnUse"><stop id="stop773" offset="0" style="stop-color:#fff;stop-opacity:1"/><stop id="stop775" offset=".255" style="stop-color:#fff;stop-opacity:1"/><stop id="stop777" offset=".422" style="stop-color:#fff;stop-opacity:1"/><stop id="stop779" offset=".564" style="stop-color:#fefefe;stop-opacity:1"/><stop id="stop781" offset=".691" style="stop-color:#e7e7e7;stop-opacity:1"/><stop id="stop783" offset=".809" style="stop-color:#c8c9c9;stop-opacity:1"/><stop id="stop785" offset=".918" style="stop-color:#a3a4a6;stop-opacity:1"/><stop id="stop787" offset="1" style="stop-color:#828384;stop-opacity:1"/></linearGradient><linearGradient id="XMLID_19_" x1="250.422" x2="250.252" y1="56.189" y2="69.813" gradientTransform="matrix(-0.8996426,-0.5216128,0,0.8996426,293.0765,86.360845)" gradientUnits="userSpaceOnUse"><stop id="stop792" offset=".006" style="stop-color:#949494;stop-opacity:1"/><stop id="stop794" offset=".061" style="stop-color:#989898;stop-opacity:1"/><stop id="stop796" offset=".685" style="stop-color:#cacaca;stop-opacity:1"/><stop id="stop798" offset="1" style="stop-color:#ddd;stop-opacity:1"/></linearGradient><linearGradient id="linearGradient3645" x1="52.704" x2="-1.831" y1="84.437" y2="27.213" gradientUnits="userSpaceOnUse" xlink:href="#linearGradient3639"/><filter id="filter5716" width="1.095" height="2.265" x="-.047" y="-.633"><feGaussianBlur id="feGaussianBlur5718" stdDeviation="1.922"/></filter><linearGradient id="XMLID_11_-919" x1="49.236" x2="29.916" y1="130.191" y2="40.522" gradientTransform="matrix(0.8996426,-0.2579275,0,0.8996426,4.5179314,-18.187341)" gradientUnits="userSpaceOnUse"><stop id="stop2531" offset=".006" style="stop-color:#9e6000;stop-opacity:1"/><stop id="stop2533" offset="1" style="stop-color:#ffd100;stop-opacity:1"/></linearGradient><linearGradient id="XMLID_12_-442" x1="63.551" x2="81.834" y1="136.052" y2="65.694" gradientTransform="matrix(0.8996426,-0.2579275,0,0.8996426,4.5179314,-18.187341)" gradientUnits="userSpaceOnUse"><stop id="stop2536" offset=".107" style="stop-color:#a76d00;stop-opacity:1"/><stop id="stop2538" offset=".594" style="stop-color:#f1ad15;stop-opacity:1"/><stop id="stop2540" offset="1" style="stop-color:#ffed2a;stop-opacity:1"/></linearGradient><linearGradient id="XMLID_13_-456" x1="46.753" x2="64.773" y1="25.93" y2="89.974" gradientTransform="matrix(0.8996426,0,0,0.8996426,4.5179314,2.8811192)" gradientUnits="userSpaceOnUse"><stop id="stop2543" offset="0" style="stop-color:#c4d3da;stop-opacity:1"/><stop id="stop2545" offset=".097" style="stop-color:#b0c0c7;stop-opacity:1"/><stop id="stop2547" offset=".529" style="stop-color:#5a707a;stop-opacity:1"/><stop id="stop2549" offset=".841" style="stop-color:#253e4c;stop-opacity:1"/><stop id="stop2551" offset="1" style="stop-color:#122b39;stop-opacity:1"/></linearGradient><linearGradient id="XMLID_14_-588" x1="62.942" x2="1.834" y1="40.984" y2="47.726" gradientTransform="matrix(0.8996426,0,0,0.8996426,4.5179314,2.8811192)" gradientUnits="userSpaceOnUse"><stop id="stop2554" offset=".006" style="stop-color:#a4a4a4;stop-opacity:1"/><stop id="stop2556" offset=".061" style="stop-color:#a9a9a9;stop-opacity:1"/><stop id="stop2558" offset=".685" style="stop-color:#e0e0e0;stop-opacity:1"/><stop id="stop2560" offset="1" style="stop-color:#f6f6f6;stop-opacity:1"/></linearGradient><linearGradient id="XMLID_15_-674" x1="231.365" x2="287.41" y1="56.624" y2="132.906" gradientTransform="matrix(-0.8996426,-0.5216128,0,0.8996426,293.0765,86.360845)" gradientUnits="userSpaceOnUse"><stop id="stop2563" offset="0" style="stop-color:#6d7178;stop-opacity:1"/><stop id="stop2565" offset=".287" style="stop-color:#f1f3f6;stop-opacity:1"/><stop id="stop2567" offset=".543" style="stop-color:#fff;stop-opacity:1"/><stop id="stop2569" offset=".825" style="stop-color:#fff;stop-opacity:1"/><stop id="stop2571" offset="1" style="stop-color:#fff;stop-opacity:1"/></linearGradient><linearGradient id="XMLID_16_-736" x1="230.438" x2="239.386" y1="74.773" y2="83.118" gradientTransform="matrix(-0.8945146,-0.5354673,-8.996426e-5,0.9047706,290.09679,86.617243)" gradientUnits="userSpaceOnUse"><stop id="stop2574" offset="0" style="stop-color:#c0c9c9;stop-opacity:1"/><stop id="stop2576" offset=".101" style="stop-color:#dee3e6;stop-opacity:1"/><stop id="stop2578" offset=".131" style="stop-color:#e2e7e9;stop-opacity:1"/><stop id="stop2580" offset=".51" style="stop-color:#fff;stop-opacity:1"/><stop id="stop2582" offset=".813" style="stop-color:#fff;stop-opacity:1"/><stop id="stop2584" offset="1" style="stop-color:#fff;stop-opacity:1"/></linearGradient><linearGradient id="XMLID_17_-13" x1="255.973" x2="229.517" y1="58.238" y2="88.616" gradientTransform="matrix(-0.8996426,-0.5216128,0,0.8996426,293.0765,86.360845)" gradientUnits="userSpaceOnUse"><stop id="stop2587" offset="0" style="stop-color:#c4d3da;stop-opacity:1"/><stop id="stop2589" offset=".097" style="stop-color:#b0c0c7;stop-opacity:1"/><stop id="stop2591" offset=".529" style="stop-color:#5a707a;stop-opacity:1"/><stop id="stop2593" offset=".841" style="stop-color:#253e4c;stop-opacity:1"/><stop id="stop2595" offset="1" style="stop-color:#122b39;stop-opacity:1"/></linearGradient><linearGradient id="XMLID_18_-600" x1="246.046" x2="241.058" y1="64.892" y2="60.075" gradientTransform="matrix(-0.8996426,-0.5216128,0,0.8996426,293.0765,86.360845)" gradientUnits="userSpaceOnUse"><stop id="stop2598" offset="0" style="stop-color:#fff;stop-opacity:1"/><stop id="stop2600" offset=".255" style="stop-color:#fff;stop-opacity:1"/><stop id="stop2602" offset=".422" style="stop-color:#fff;stop-opacity:1"/><stop id="stop2604" offset=".564" style="stop-color:#fff;stop-opacity:1"/><stop id="stop2606" offset=".691" style="stop-color:#fff;stop-opacity:1"/><stop id="stop2608" offset=".809" style="stop-color:#dedfdf;stop-opacity:1"/><stop id="stop2610" offset=".918" style="stop-color:#b5b6b8;stop-opacity:1"/><stop id="stop2612" offset="1" style="stop-color:#909293;stop-opacity:1"/></linearGradient><linearGradient id="XMLID_19_-475" x1="250.422" x2="250.252" y1="56.189" y2="69.813" gradientTransform="matrix(-0.8996426,-0.5216128,0,0.8996426,293.0765,86.360845)" gradientUnits="userSpaceOnUse"><stop id="stop2615" offset=".006" style="stop-color:#a4a4a4;stop-opacity:1"/><stop id="stop2617" offset=".061" style="stop-color:#a9a9a9;stop-opacity:1"/><stop id="stop2619" offset=".685" style="stop-color:#e0e0e0;stop-opacity:1"/><stop id="stop2621" offset="1" style="stop-color:#f6f6f6;stop-opacity:1"/></linearGradient><linearGradient id="linearGradient3645-854" x1="52.704" x2="-1.831" y1="84.437" y2="27.213" gradientUnits="userSpaceOnUse" xlink:href="#linearGradient3639-602"/><linearGradient id="linearGradient3639-602"><stop id="stop2625" offset="0" style="stop-color:#9e6000;stop-opacity:1"/><stop id="stop2627" offset="1" style="stop-color:#ffbd00;stop-opacity:1"/></linearGradient><linearGradient id="XMLID_20_-734" x1="47.52" x2="60.9" y1="137.321" y2="92.15" gradientTransform="matrix(0.8996426,-0.2579275,0,0.8996426,4.5179314,-18.187341)" gradientUnits="userSpaceOnUse"><stop id="stop2630" offset=".006" style="stop-color:#e39f00;stop-opacity:1"/><stop id="stop2632" offset=".149" style="stop-color:#ffbc0e;stop-opacity:1"/><stop id="stop2634" offset=".446" style="stop-color:#ffcf39;stop-opacity:1"/><stop id="stop2636" offset="1" style="stop-color:#fff87e;stop-opacity:1"/></linearGradient></defs><path id="path4676" d="M 104.97732,97.285156 C 104.97732,99.15558 104.89658,100.82955 56.597796,100.6736 C 8.4321244,100.51765 8.2182794,99.15558 8.2182794,97.285156 C 8.2182794,95.414733 8.3084784,94.003062 56.597796,93.896708 C 105.02023,93.790354 104.97732,95.414733 104.97732,97.285156 z" transform="matrix(0.9575582,0,-0.667198,1.5712685,68.244066,-57.574073)" style="opacity:.86764706;fill:#323232;fill-opacity:1;fill-rule:nonzero;stroke:#323232;stroke-width:.5;stroke-linecap:round;stroke-linejoin:miter;stroke-miterlimit:4;stroke-opacity:1;filter:url(#filter5716)"/><path id="path670" d="M 97.390736,98.944056 C 92.714394,99.053813 23.058666,98.864888 18.703496,98.736239 C 16.98158,98.684959 15.352327,97.184355 13.616917,95.242927 C 2.5180259,82.829658 3.9610526,51.735311 5.7378468,50.120452 C 6.663579,49.279287 5.5858072,48.558673 13.909301,46.952811 C 13.909301,40.920707 14.378014,36.214677 14.746868,32.026841 C 15.060843,28.466055 15.879518,25.649274 16.336536,25.064506 C 16.976182,24.245832 34.946543,24.468043 42.874194,25.153571 C 43.879994,25.240836 45.690075,30.985054 47.476765,30.84561 C 61.86385,29.714759 99.082064,31.552729 100.22731,32.697974 C 101.22231,33.692979 104.25591,98.782121 97.390736,98.944056 z" style="fill:url(#XMLID_11_-919)"/><path id="path679" d="M 96.19691,96.337792 C 92.108035,96.420559 19.428608,96.499727 17.298254,95.779114 C 15.510664,95.173654 15.731077,49.168631 16.85473,32.536938 C 17.071544,29.336909 17.765169,26.824207 18.03956,26.246637 C 18.337341,25.619586 32.075784,25.981242 40.186961,26.367189 C 41.662375,26.437361 42.801323,32.40559 44.407185,32.263447 C 57.577952,31.102908 97.017384,32.750153 98.051973,33.784742 C 98.784282,34.516152 100.79498,96.245129 96.19691,96.337792 z" style="fill:url(#XMLID_12_-442)"/><path id="path693" d="M 24.149932,4.6804044 C 37.34499,32.119504 9.6054107,54.611468 24.957811,78.326047 C 31.010607,78.326047 67.258107,78.208194 82.366705,78.208194 C 83.677484,77.660312 84.470069,76.945096 85.181686,76.561848 C 72.430152,60.758726 87.922897,45.730197 84.724668,27.771531 C 84.54384,26.749537 75.728242,10.828562 68.08128,2.8811192 L 27.898743,2.8811192 C 27.296882,3.0997324 24.149932,4.6804044 24.149932,4.6804044 z" style="fill:url(#XMLID_13_-456)"/><path id="path695" d="M 44.408084,32.263447 C 42.802222,32.40559 41.662375,26.437361 40.187861,26.367189 C 37.37018,26.233142 33.873269,26.102694 30.496911,26.014529 C 29.788892,45.839053 15.738274,63.513432 27.657639,81.924618 C 33.710434,81.924618 69.957934,81.806764 85.066532,81.806764 C 86.377311,81.258882 87.169896,80.543666 87.881514,80.160419 C 80.078014,68.405688 88.442891,50.094363 86.225272,32.736659 C 72.984332,31.999851 53.252471,31.483456 44.408084,32.263447 z" style="opacity:.25"/><path id="path706" d="M 26.06887,4.709193 C 38.244633,30.619799 12.305238,59.859084 26.869552,76.393615 L 82.064425,76.782261 L 83.432781,76.126421 C 70.932247,61.508129 86.226171,44.7145 83.449874,27.999141 L 81.300628,25.920966 L 68.179341,6.0010797 L 67.933738,5.0213689 L 66.812784,3.8896186 L 27.417434,4.135221 C 27.416534,4.1361206 26.041881,4.6516158 26.06887,4.709193 z" style="fill:url(#XMLID_14_-588)"/><path id="path719" d="M 26.030185,76.836239 C 26.030185,76.836239 82.063525,76.871325 82.044632,76.854232 C 69.132962,63.457654 85.026048,44.115338 82.083317,26.580404 C 82.077919,26.542619 67.170841,4.8927201 67.170841,4.8927201 L 26.030185,4.6579133 C 38.094393,32.868906 13.05464,53.411345 26.030185,76.836239 z" style="fill:url(#XMLID_15_-674)"/><path id="path742" d="M 67.65215,6.0541587 L 27.121452,5.6448213 C 39.744337,27.621291 15.527758,56.328886 26.099458,74.103125" style="opacity:.75;fill:none;stroke:#fff;stroke-width:1.74953496;stroke-linecap:round"/><path id="path757" d="M 28.523095,76.442196 L 82.064425,76.836239 C 69.282303,63.757235 84.426886,45.614143 82.174181,26.542619 C 81.844012,23.742032 67.202329,4.0038732 67.202329,4.0038732 L 28.452023,4.6983973 C 44.09231,25.072603 18.002674,53.411345 28.523095,76.442196 z" style="fill:url(#XMLID_16_-736)"/><line id="line722" x1="29.223" x2="68.852" y1="69.382" y2="69.367" style="fill:none;stroke:#949494;stroke-width:1.74953496;stroke-linecap:round"/><line id="line724" x1="28.923" x2="68.497" y1="64.912" y2="64.918" style="fill:none;stroke:#949494;stroke-width:1.74953496;stroke-linecap:round"/><line id="line726" x1="29.373" x2="68.893" y1="57.653" y2="57.645" style="fill:none;stroke:#949494;stroke-width:1.74953496;stroke-linecap:round"/><line id="line728" x1="36.42" x2="75.884" y1="18.756" y2="18.741" style="fill:none;stroke:#949494;stroke-width:1.74953496;stroke-linecap:round"/><line id="line730" x1="35.971" x2="74.196" y1="14.178" y2="14.17" style="fill:none;stroke:#949494;stroke-width:1.74953496;stroke-linecap:round"/><line id="line732" x1="30.723" x2="53.647" y1="49.922" y2="49.899" style="fill:none;stroke:#949494;stroke-width:1.74953496;stroke-linecap:round"/><line id="line734" x1="32.072" x2="71.616" y1="43.526" y2="43.508" style="fill:none;stroke:#949494;stroke-width:1.74953496;stroke-linecap:round"/><line id="line736" x1="33.722" x2="73.266" y1="36.77" y2="36.752" style="fill:none;stroke:#949494;stroke-width:1.74953496;stroke-linecap:round"/><line id="line738" x1="34.845" x2="74.383" y1="32.267" y2="32.26" style="fill:none;stroke:#949494;stroke-width:1.74953496;stroke-linecap:round"/><line id="line740" x1="35.521" x2="75.065" y1="27.763" y2="27.745" style="fill:none;stroke:#949494;stroke-width:1.74953496;stroke-linecap:round"/><path id="path770" d="M 66.666142,24.117183 C 69.236421,25.148173 81.207965,27.511534 82.123801,29.464658 C 82.123801,28.645084 82.15169,27.079706 82.123801,26.721648 C 79.30702,20.238824 67.940036,4.5688487 67.158246,4.5364616 C 66.608565,4.3727266 66.096668,4.4617912 65.919438,4.4276048 C 66.274797,4.6606123 66.551887,4.9745875 66.963024,5.3488389 C 69.652955,7.9371106 65.242907,23.546809 66.666142,24.117183 z" style="opacity:.68999999;fill:url(#XMLID_17_-13)"/><path id="path789" d="M 82.056328,26.607393 C 81.739654,25.932662 80.081612,25.002431 79.403282,24.735237 C 76.778125,23.704247 68.440237,22.020116 68.440237,22.020116 L 68.563488,8.671219 C 68.563488,8.671219 68.544596,7.3397479 68.303491,6.7117974 C 68.017405,5.9578969 68.111868,4.96829 67.085375,3.9903785 C 70.433845,5.4118138 82.970365,26.646978 82.056328,26.607393 z" style="fill:url(#XMLID_18_-600)"/><path id="path800" d="M 68.811789,8.7782764 C 68.929643,11.792079 68.5338,20.236125 68.455531,22.041707 C 68.334079,21.943646 67.832079,21.785309 67.832079,21.785309 C 67.832079,21.785309 68.562588,11.559072 68.38356,8.5857529 C 68.35747,8.1413295 68.269305,7.3262533 68.068685,6.702801 C 67.808688,5.8967212 66.963024,4.6894008 66.757905,4.2647695 C 66.938734,3.1357181 68.683141,5.5791474 68.811789,8.7782764 z" style="fill:url(#XMLID_19_-475)"/><path id="path802" d="M 97.910729,95.090887 C 98.146436,95.022514 96.872542,96.909964 96.872542,96.937853 C 96.872542,98.00303 19.22259,95.91496 17.327043,95.3104 C 16.486777,95.044106 16.007267,51.752404 16.245672,46.807069 C 52.024459,40.819947 88.115421,48.21411 88.386213,51.089368 C 90.722585,75.770163 95.038171,95.926655 97.910729,95.090887 z" style="opacity:1;fill:url(#linearGradient3645-854);fill-opacity:1"/><path id="path817" d="M 92.021669,90.227419 C 92.809756,92.673547 95.112841,96.434054 96.872542,96.936954 C 89.327239,97.479438 24.424323,96.847889 21.2108,96.556405 C 19.030966,96.357584 16.924902,97.602689 13.612418,91.454532 C 4.856197,78.157814 6.0869081,52.023197 8.4862549,51.263898 C 41.14778,40.927005 85.823131,49.947721 86.136207,52.716821 C 87.328233,63.297518 88.668701,79.835648 92.021669,90.227419 z" style="fill:url(#XMLID_20_-734)"/></svg>