<svg xmlns="http://www.w3.org/2000/svg" xmlns:svg="http://www.w3.org/2000/svg" xmlns:xlink="http://www.w3.org/1999/xlink" id="svg2" width="744.094" height="744.094" version="1.0"><defs id="defs4"><linearGradient id="linearGradient5184"><stop style="stop-color:#aca793;stop-opacity:1" id="stop5186" offset="0"/><stop style="stop-color:#aca793;stop-opacity:0" id="stop5188" offset="1"/></linearGradient><linearGradient id="linearGradient18781"><stop style="stop-color:#a1a1a1;stop-opacity:1" id="stop18783" offset="0"/><stop style="stop-color:#a1a1a1;stop-opacity:0" id="stop18785" offset="1"/></linearGradient><linearGradient id="linearGradient18773"><stop style="stop-color:#a1a1a1;stop-opacity:1" id="stop18775" offset="0"/><stop style="stop-color:#a1a1a1;stop-opacity:0" id="stop18777" offset="1"/></linearGradient><linearGradient id="linearGradient17786"><stop style="stop-color:#483e37;stop-opacity:1" id="stop17788" offset="0"/><stop style="stop-color:#483e37;stop-opacity:0" id="stop17790" offset="1"/></linearGradient><linearGradient id="linearGradient14850"><stop style="stop-color:#d4aa00;stop-opacity:1" id="stop14852" offset="0"/><stop style="stop-color:#d4aa00;stop-opacity:0" id="stop14854" offset="1"/></linearGradient><linearGradient id="linearGradient8122"><stop style="stop-color:#ef221f;stop-opacity:1" id="stop8124" offset="0"/><stop style="stop-color:#ef221f;stop-opacity:0" id="stop8126" offset="1"/></linearGradient><linearGradient id="linearGradient8114"><stop style="stop-color:#ef9d1f;stop-opacity:1" id="stop8116" offset="0"/><stop style="stop-color:#ef9d1f;stop-opacity:0" id="stop8118" offset="1"/></linearGradient><linearGradient id="linearGradient5180"><stop style="stop-color:#fff;stop-opacity:1" id="stop5182" offset="0"/><stop style="stop-color:#fff;stop-opacity:0" id="stop5184" offset="1"/></linearGradient><linearGradient id="linearGradient5186" x1="-64.27" x2="-18" y1="-46.123" y2="100.783" gradientTransform="matrix(1.3549308,0,0,1.1385082,234.28173,86.42537)" gradientUnits="userSpaceOnUse" xlink:href="#linearGradient5180"/><linearGradient id="linearGradient8134" x1="324.239" x2="282.661" y1="334.144" y2="334.144" gradientUnits="userSpaceOnUse" xlink:href="#linearGradient8114"/><linearGradient id="linearGradient8154" x1="324.239" x2="282.661" y1="334.144" y2="334.144" gradientUnits="userSpaceOnUse" xlink:href="#linearGradient8114"/><linearGradient id="linearGradient8156" x1="-125.244" x2="-118.183" y1="227.114" y2="227.114" gradientTransform="translate(-0.625,0.125)" gradientUnits="userSpaceOnUse" xlink:href="#linearGradient8122"/><linearGradient id="linearGradient8170" x1="324.239" x2="282.661" y1="334.144" y2="334.144" gradientUnits="userSpaceOnUse" xlink:href="#linearGradient8114"/><linearGradient id="linearGradient8172" x1="-125.244" x2="-118.183" y1="227.114" y2="227.114" gradientTransform="translate(-0.625,0.125)" gradientUnits="userSpaceOnUse" xlink:href="#linearGradient8122"/><linearGradient id="linearGradient8174" x1="324.239" x2="282.661" y1="334.144" y2="334.144" gradientUnits="userSpaceOnUse" xlink:href="#linearGradient8114"/><linearGradient id="linearGradient8176" x1="-125.244" x2="-118.183" y1="227.114" y2="227.114" gradientTransform="translate(-0.625,0.125)" gradientUnits="userSpaceOnUse" xlink:href="#linearGradient8122"/><linearGradient id="linearGradient8202" x1="324.239" x2="282.661" y1="334.144" y2="334.144" gradientUnits="userSpaceOnUse" xlink:href="#linearGradient8114"/><linearGradient id="linearGradient8204" x1="-125.244" x2="-118.183" y1="227.114" y2="227.114" gradientTransform="translate(-0.625,0.125)" gradientUnits="userSpaceOnUse" xlink:href="#linearGradient8122"/><linearGradient id="linearGradient8206" x1="324.239" x2="282.661" y1="334.144" y2="334.144" gradientUnits="userSpaceOnUse" xlink:href="#linearGradient8114"/><linearGradient id="linearGradient8208" x1="-125.244" x2="-118.183" y1="227.114" y2="227.114" gradientTransform="translate(-0.625,0.125)" gradientUnits="userSpaceOnUse" xlink:href="#linearGradient8122"/><linearGradient id="linearGradient8210" x1="324.239" x2="282.661" y1="334.144" y2="334.144" gradientUnits="userSpaceOnUse" xlink:href="#linearGradient8114"/><linearGradient id="linearGradient8212" x1="-125.244" x2="-118.183" y1="227.114" y2="227.114" gradientTransform="translate(-0.625,0.125)" gradientUnits="userSpaceOnUse" xlink:href="#linearGradient8122"/><linearGradient id="linearGradient8214" x1="324.239" x2="282.661" y1="334.144" y2="334.144" gradientUnits="userSpaceOnUse" xlink:href="#linearGradient8114"/><linearGradient id="linearGradient8216" x1="-125.244" x2="-118.183" y1="227.114" y2="227.114" gradientTransform="translate(-0.625,0.125)" gradientUnits="userSpaceOnUse" xlink:href="#linearGradient8122"/><linearGradient id="linearGradient8236" x1="324.239" x2="282.661" y1="334.144" y2="334.144" gradientUnits="userSpaceOnUse" xlink:href="#linearGradient8114"/><linearGradient id="linearGradient8238" x1="-125.244" x2="-118.183" y1="227.114" y2="227.114" gradientTransform="translate(-0.625,0.125)" gradientUnits="userSpaceOnUse" xlink:href="#linearGradient8122"/><linearGradient id="linearGradient8240" x1="324.239" x2="282.661" y1="334.144" y2="334.144" gradientUnits="userSpaceOnUse" xlink:href="#linearGradient8114"/><linearGradient id="linearGradient8242" x1="-125.244" x2="-118.183" y1="227.114" y2="227.114" gradientTransform="translate(-0.625,0.125)" gradientUnits="userSpaceOnUse" xlink:href="#linearGradient8122"/><linearGradient id="linearGradient8244" x1="324.239" x2="282.661" y1="334.144" y2="334.144" gradientUnits="userSpaceOnUse" xlink:href="#linearGradient8114"/><linearGradient id="linearGradient8246" x1="-125.244" x2="-118.183" y1="227.114" y2="227.114" gradientTransform="translate(-0.625,0.125)" gradientUnits="userSpaceOnUse" xlink:href="#linearGradient8122"/><linearGradient id="linearGradient8254" x1="324.239" x2="282.661" y1="334.144" y2="334.144" gradientUnits="userSpaceOnUse" xlink:href="#linearGradient8114"/><filter id="filter13877" width="1.225" height="1.438" x="-.112" y="-.219"><feGaussianBlur id="feGaussianBlur13879" stdDeviation="3.652"/></filter><linearGradient id="linearGradient14856" x1="205.982" x2="206.057" y1="395.821" y2="289.821" gradientUnits="userSpaceOnUse" xlink:href="#linearGradient14850"/><linearGradient id="linearGradient16807" x1="-125.244" x2="-118.183" y1="227.114" y2="227.114" gradientTransform="translate(273.14277,-27.117641)" gradientUnits="userSpaceOnUse" xlink:href="#linearGradient8122"/><linearGradient id="linearGradient16811" x1="-125.244" x2="-118.183" y1="227.114" y2="227.114" gradientTransform="translate(383.14277,-27.117641)" gradientUnits="userSpaceOnUse" xlink:href="#linearGradient8122"/><linearGradient id="linearGradient17792" x1="211.982" x2="213.02" y1="435.821" y2="329.821" gradientUnits="userSpaceOnUse" xlink:href="#linearGradient17786"/><linearGradient id="linearGradient18779" x1="248.102" x2="233.489" y1="222.743" y2="262.341" gradientUnits="userSpaceOnUse" xlink:href="#linearGradient18773"/><linearGradient id="linearGradient18787" x1="170.567" x2="190.602" y1="218.994" y2="267.077" gradientUnits="userSpaceOnUse" xlink:href="#linearGradient18781"/><radialGradient id="radialGradient5190" cx="-94" cy="152" r="122" fx="-94" fy="152" gradientTransform="matrix(1,0,0,1.057377,0,-8.7213115)" gradientUnits="userSpaceOnUse" xlink:href="#linearGradient5184"/></defs><metadata id="metadata7"/><g id="layer1" transform="translate(8.5,5.6229858)"><path id="path3236" d="M 28,152 A 122,129 0 1 1 -216,152 A 122,129 0 1 1 28,152 z" transform="matrix(1.0554953,6.8484264e-2,-0.2857022,0.1972197,307.20176,679.0514)" style="opacity:1;fill:url(#radialGradient5190);fill-opacity:1;fill-rule:evenodd;stroke:none;stroke-width:1;stroke-linecap:butt;stroke-linejoin:round;marker:none;marker-start:none;marker-mid:none;marker-end:none;stroke-miterlimit:4;stroke-dasharray:none;stroke-dashoffset:0;stroke-opacity:1;visibility:visible;display:inline;overflow:visible;enable-background:accumulate"/><g id="g18810" transform="matrix(1.3727499,0.4725689,-0.641908,1.0106106,251.95923,-64.87082)"><path id="path1311" d="M 372.29239,191.90679 C 372.29239,236.85537 354.05239,277.56965 324.57525,307.0468 C 309.83668,321.78537 272.80703,380.80477 272.80703,401.9593 L 272.80703,474.3105 L 146.06346,474.76394 L 146.06346,401.9593 C 146.06346,380.80477 109.03382,321.78537 94.29524,307.0468 C 64.8181,277.56965 46.5781,236.85537 46.5781,191.90679 C 46.5781,102.00965 119.5381,29.04964 209.43525,29.04964 C 299.33239,29.04964 372.29239,102.00965 372.29239,191.90679 z" style="fill:#fc0;fill-opacity:1;fill-rule:nonzero;stroke:#df941b;stroke-width:4;stroke-linecap:butt;stroke-linejoin:miter;marker:none;marker-start:none;marker-mid:none;marker-end:none;stroke-miterlimit:4;stroke-dashoffset:0;stroke-opacity:1;visibility:visible;display:inline;overflow:visible"/><path id="path9302" d="M 9,90.877014 C 9,101.91701 -8.472,110.87701 -30,110.87701 C -51.528,110.87701 -69,101.91701 -69,90.877014 C -69,79.837014 -51.528,70.877014 -30,70.877014 C -8.472,70.877014 9,79.837014 9,90.877014 z" transform="matrix(3.606747,0,0,5.5331567,318.20241,-276.95975)" style="fill:#ffe887;fill-opacity:1;fill-rule:evenodd;stroke:none;stroke-width:1;stroke-linecap:butt;stroke-linejoin:round;marker:none;marker-start:none;marker-mid:none;marker-end:none;stroke-miterlimit:4;stroke-dashoffset:0;stroke-opacity:1;visibility:visible;display:inline;overflow:visible;filter:url(#filter13877);enable-background:accumulate"/><path id="path2969" d="M 189.23219,474.70386 L 189.23219,309.14291 L 179.23219,293.93858 L 173.23219,282.73425 C 173.23219,282.73425 189.33372,264.73425 209.43524,264.73425 C 229.53676,264.73425 243.63829,282.73425 243.63829,282.73425 L 238.63829,293.93858 L 229.63829,307.14291 L 229.63829,474.70386 L 272.80703,474.70386 L 266.80703,497.22605 L 272.21346,506.42212 L 266.80703,516.34582 L 266.80703,527.06125 L 272.21346,536.69828 L 266.80703,546.03652 L 266.80703,557.26921 L 272.21346,567.00289 L 266.47978,576.62773 L 266.80703,594.70386 L 246.80703,606.90691 L 189.23219,606.90691 L 189.23219,474.70386 z" style="fill:url(#linearGradient14856);fill-opacity:1;fill-rule:nonzero;stroke:url(#linearGradient17792);stroke-width:2.5;stroke-linecap:butt;stroke-linejoin:miter;marker:none;marker-start:none;marker-mid:none;marker-end:none;stroke-miterlimit:4;stroke-dashoffset:0;stroke-opacity:1;visibility:visible;display:inline;overflow:visible"/><path id="path2524" d="M 245.18489,211.98014 C 244.08786,210.71834 243.40904,208.97552 243.40904,207.05145 C 243.40904,203.2033 246.12433,200.08016 249.46996,200.08016 C 252.81558,200.08016 255.53087,203.2033 255.53087,207.05145 C 255.53087,210.89959 252.81558,214.02273 249.46996,214.02273 L 230.30291,269.44835" style="fill:none;fill-opacity:1;fill-rule:evenodd;stroke:url(#linearGradient18779);stroke-width:4;stroke-linecap:butt;stroke-linejoin:miter;stroke-miterlimit:4;stroke-opacity:1"/><path id="path2518" d="M 173.72031,211.76584 C 174.81734,210.50404 175.49616,208.76122 175.49616,206.83715 C 175.49616,202.989 172.78087,199.86586 169.43524,199.86586 C 166.08962,199.86586 163.37433,202.989 163.37433,206.83715 C 163.37433,210.68529 166.08962,213.80843 169.43524,213.80843 L 188.60229,269.23405" style="fill:none;fill-opacity:.75;fill-rule:evenodd;stroke:url(#linearGradient18787);stroke-width:4;stroke-linecap:butt;stroke-linejoin:miter;stroke-miterlimit:4;stroke-opacity:1"/><path id="path8252" d="M 264.58454,210.09783 C 261.23892,210.09783 258.52363,205.57235 258.52363,199.99631 C 258.52363,194.42027 261.23892,189.89478 264.58454,189.89478" style="fill:none;fill-opacity:1;fill-rule:nonzero;stroke:url(#linearGradient16811);stroke-width:4;stroke-linecap:butt;stroke-linejoin:miter;marker:none;marker-start:none;marker-mid:none;marker-end:none;stroke-miterlimit:4;stroke-dashoffset:0;stroke-opacity:1;visibility:visible;display:inline;overflow:visible"/><g id="g8218" transform="translate(373.76777,-27.242641)"><path style="fill:none;fill-opacity:1;fill-rule:nonzero;stroke:url(#linearGradient8236);stroke-width:4;stroke-linecap:butt;stroke-linejoin:miter;marker:none;marker-start:none;marker-mid:none;marker-end:none;stroke-miterlimit:4;stroke-dasharray:none;stroke-dashoffset:0;stroke-opacity:1;visibility:visible;display:inline;overflow:visible" id="path8220" d="M 322.23865,334.14374 A 6.0609155,10.101525 0 1 1 310.11682,334.14374 A 6.0609155,10.101525 0 1 1 322.23865,334.14374 z" transform="translate(-435.44308,-107.02979)"/><path style="fill:none;fill-opacity:1;fill-rule:nonzero;stroke:url(#linearGradient8238);stroke-width:4;stroke-linecap:butt;stroke-linejoin:miter;marker:none;marker-start:none;marker-mid:none;marker-end:none;stroke-miterlimit:4;stroke-dashoffset:0;stroke-opacity:1;visibility:visible;display:inline;overflow:visible" id="path8222" d="M -119.18323,237.34047 C -122.52885,237.34047 -125.24414,232.81499 -125.24414,227.23895 C -125.24414,221.66291 -122.52885,217.13742 -119.18323,217.13742"/></g><g id="g8224" transform="translate(363.76777,-27.242641)"><path id="path8226" d="M 322.23865,334.14374 A 6.0609155,10.101525 0 1 1 310.11682,334.14374 A 6.0609155,10.101525 0 1 1 322.23865,334.14374 z" transform="translate(-435.44308,-107.02979)" style="fill:none;fill-opacity:1;fill-rule:nonzero;stroke:url(#linearGradient8240);stroke-width:4;stroke-linecap:butt;stroke-linejoin:miter;marker:none;marker-start:none;marker-mid:none;marker-end:none;stroke-miterlimit:4;stroke-dasharray:none;stroke-dashoffset:0;stroke-opacity:1;visibility:visible;display:inline;overflow:visible"/><path id="path8228" d="M -119.18323,237.34047 C -122.52885,237.34047 -125.24414,232.81499 -125.24414,227.23895 C -125.24414,221.66291 -122.52885,217.13742 -119.18323,217.13742" style="fill:none;fill-opacity:1;fill-rule:nonzero;stroke:url(#linearGradient8242);stroke-width:4;stroke-linecap:butt;stroke-linejoin:miter;marker:none;marker-start:none;marker-mid:none;marker-end:none;stroke-miterlimit:4;stroke-dashoffset:0;stroke-opacity:1;visibility:visible;display:inline;overflow:visible"/></g><g id="g8230" transform="translate(353.76777,-27.242641)"><path id="path8232" d="M 322.23865,334.14374 A 6.0609155,10.101525 0 1 1 310.11682,334.14374 A 6.0609155,10.101525 0 1 1 322.23865,334.14374 z" transform="translate(-435.44308,-107.02979)" style="fill:none;fill-opacity:1;fill-rule:nonzero;stroke:url(#linearGradient8244);stroke-width:4;stroke-linecap:butt;stroke-linejoin:miter;marker:none;marker-start:none;marker-mid:none;marker-end:none;stroke-miterlimit:4;stroke-dasharray:none;stroke-dashoffset:0;stroke-opacity:1;visibility:visible;display:inline;overflow:visible"/><path id="path8234" d="M -119.18323,237.34047 C -122.52885,237.34047 -125.24414,232.81499 -125.24414,227.23895 C -125.24414,221.66291 -122.52885,217.13742 -119.18323,217.13742" style="fill:none;fill-opacity:1;fill-rule:nonzero;stroke:url(#linearGradient8246);stroke-width:4;stroke-linecap:butt;stroke-linejoin:miter;marker:none;marker-start:none;marker-mid:none;marker-end:none;stroke-miterlimit:4;stroke-dashoffset:0;stroke-opacity:1;visibility:visible;display:inline;overflow:visible"/></g><g id="g8178" transform="translate(343.76777,-27.242641)"><path id="path8180" d="M 322.23865,334.14374 A 6.0609155,10.101525 0 1 1 310.11682,334.14374 A 6.0609155,10.101525 0 1 1 322.23865,334.14374 z" transform="translate(-435.44308,-107.02979)" style="fill:none;fill-opacity:1;fill-rule:nonzero;stroke:url(#linearGradient8202);stroke-width:4;stroke-linecap:butt;stroke-linejoin:miter;marker:none;marker-start:none;marker-mid:none;marker-end:none;stroke-miterlimit:4;stroke-dasharray:none;stroke-dashoffset:0;stroke-opacity:1;visibility:visible;display:inline;overflow:visible"/><path id="path8182" d="M -119.18323,237.34047 C -122.52885,237.34047 -125.24414,232.81499 -125.24414,227.23895 C -125.24414,221.66291 -122.52885,217.13742 -119.18323,217.13742" style="fill:none;fill-opacity:1;fill-rule:nonzero;stroke:url(#linearGradient8204);stroke-width:4;stroke-linecap:butt;stroke-linejoin:miter;marker:none;marker-start:none;marker-mid:none;marker-end:none;stroke-miterlimit:4;stroke-dashoffset:0;stroke-opacity:1;visibility:visible;display:inline;overflow:visible"/></g><g id="g8184" transform="translate(333.76777,-27.242641)"><path style="fill:none;fill-opacity:1;fill-rule:nonzero;stroke:url(#linearGradient8206);stroke-width:4;stroke-linecap:butt;stroke-linejoin:miter;marker:none;marker-start:none;marker-mid:none;marker-end:none;stroke-miterlimit:4;stroke-dasharray:none;stroke-dashoffset:0;stroke-opacity:1;visibility:visible;display:inline;overflow:visible" id="path8186" d="M 322.23865,334.14374 A 6.0609155,10.101525 0 1 1 310.11682,334.14374 A 6.0609155,10.101525 0 1 1 322.23865,334.14374 z" transform="translate(-435.44308,-107.02979)"/><path style="fill:none;fill-opacity:1;fill-rule:nonzero;stroke:url(#linearGradient8208);stroke-width:4;stroke-linecap:butt;stroke-linejoin:miter;marker:none;marker-start:none;marker-mid:none;marker-end:none;stroke-miterlimit:4;stroke-dashoffset:0;stroke-opacity:1;visibility:visible;display:inline;overflow:visible" id="path8188" d="M -119.18323,237.34047 C -122.52885,237.34047 -125.24414,232.81499 -125.24414,227.23895 C -125.24414,221.66291 -122.52885,217.13742 -119.18323,217.13742"/></g><path id="path2530" d="M 265.32737,211.76584 C 264.23034,210.50404 263.55152,208.76122 263.55152,206.83715 C 263.55152,202.989 266.26681,199.86586 269.61244,199.86586 C 272.95806,199.86586 275.67335,202.989 275.67335,206.83715 C 275.67335,210.68529 272.95806,213.80843 269.61244,213.80843 L 231.24853,414.01625 L 223.4863,421.38907 L 223.43061,488.091 C 227.10402,520.58104 245.06314,521.35681 268.73655,522.41828" style="fill:none;fill-opacity:.75;fill-rule:evenodd;stroke:#50505d;stroke-width:4;stroke-linecap:butt;stroke-linejoin:miter;stroke-miterlimit:4;stroke-opacity:1"/><g id="g8190" transform="translate(323.76777,-27.242641)"><path style="fill:none;fill-opacity:1;fill-rule:nonzero;stroke:url(#linearGradient8210);stroke-width:4;stroke-linecap:butt;stroke-linejoin:miter;marker:none;marker-start:none;marker-mid:none;marker-end:none;stroke-miterlimit:4;stroke-dasharray:none;stroke-dashoffset:0;stroke-opacity:1;visibility:visible;display:inline;overflow:visible" id="path8192" d="M 322.23865,334.14374 A 6.0609155,10.101525 0 1 1 310.11682,334.14374 A 6.0609155,10.101525 0 1 1 322.23865,334.14374 z" transform="translate(-435.44308,-107.02979)"/><path style="fill:none;fill-opacity:1;fill-rule:nonzero;stroke:url(#linearGradient8212);stroke-width:4;stroke-linecap:butt;stroke-linejoin:miter;marker:none;marker-start:none;marker-mid:none;marker-end:none;stroke-miterlimit:4;stroke-dashoffset:0;stroke-opacity:1;visibility:visible;display:inline;overflow:visible" id="path8194" d="M -119.18323,237.34047 C -122.52885,237.34047 -125.24414,232.81499 -125.24414,227.23895 C -125.24414,221.66291 -122.52885,217.13742 -119.18323,217.13742"/></g><g id="g8196" transform="translate(313.76777,-27.242641)"><path id="path8198" d="M 322.23865,334.14374 A 6.0609155,10.101525 0 1 1 310.11682,334.14374 A 6.0609155,10.101525 0 1 1 322.23865,334.14374 z" transform="translate(-435.44308,-107.02979)" style="fill:none;fill-opacity:1;fill-rule:nonzero;stroke:url(#linearGradient8214);stroke-width:4;stroke-linecap:butt;stroke-linejoin:miter;marker:none;marker-start:none;marker-mid:none;marker-end:none;stroke-miterlimit:4;stroke-dasharray:none;stroke-dashoffset:0;stroke-opacity:1;visibility:visible;display:inline;overflow:visible"/><path id="path8200" d="M -119.18323,237.34047 C -122.52885,237.34047 -125.24414,232.81499 -125.24414,227.23895 C -125.24414,221.66291 -122.52885,217.13742 -119.18323,217.13742" style="fill:none;fill-opacity:1;fill-rule:nonzero;stroke:url(#linearGradient8216);stroke-width:4;stroke-linecap:butt;stroke-linejoin:miter;marker:none;marker-start:none;marker-mid:none;marker-end:none;stroke-miterlimit:4;stroke-dashoffset:0;stroke-opacity:1;visibility:visible;display:inline;overflow:visible"/></g><g id="g8158" transform="translate(303.76777,-27.242641)"><path style="fill:none;fill-opacity:1;fill-rule:nonzero;stroke:url(#linearGradient8170);stroke-width:4;stroke-linecap:butt;stroke-linejoin:miter;marker:none;marker-start:none;marker-mid:none;marker-end:none;stroke-miterlimit:4;stroke-dasharray:none;stroke-dashoffset:0;stroke-opacity:1;visibility:visible;display:inline;overflow:visible" id="path8160" d="M 322.23865,334.14374 A 6.0609155,10.101525 0 1 1 310.11682,334.14374 A 6.0609155,10.101525 0 1 1 322.23865,334.14374 z" transform="translate(-435.44308,-107.02979)"/><path style="fill:none;fill-opacity:1;fill-rule:nonzero;stroke:url(#linearGradient8172);stroke-width:4;stroke-linecap:butt;stroke-linejoin:miter;marker:none;marker-start:none;marker-mid:none;marker-end:none;stroke-miterlimit:4;stroke-dashoffset:0;stroke-opacity:1;visibility:visible;display:inline;overflow:visible" id="path8162" d="M -119.18323,237.34047 C -122.52885,237.34047 -125.24414,232.81499 -125.24414,227.23895 C -125.24414,221.66291 -122.52885,217.13742 -119.18323,217.13742"/></g><g id="g8164" transform="translate(293.76777,-27.242641)"><path id="path8166" d="M 322.23865,334.14374 A 6.0609155,10.101525 0 1 1 310.11682,334.14374 A 6.0609155,10.101525 0 1 1 322.23865,334.14374 z" transform="translate(-435.44308,-107.02979)" style="fill:none;fill-opacity:1;fill-rule:nonzero;stroke:url(#linearGradient8174);stroke-width:4;stroke-linecap:butt;stroke-linejoin:miter;marker:none;marker-start:none;marker-mid:none;marker-end:none;stroke-miterlimit:4;stroke-dasharray:none;stroke-dashoffset:0;stroke-opacity:1;visibility:visible;display:inline;overflow:visible"/><path id="path8168" d="M -119.18323,237.34047 C -122.52885,237.34047 -125.24414,232.81499 -125.24414,227.23895 C -125.24414,221.66291 -122.52885,217.13742 -119.18323,217.13742" style="fill:none;fill-opacity:1;fill-rule:nonzero;stroke:url(#linearGradient8176);stroke-width:4;stroke-linecap:butt;stroke-linejoin:miter;marker:none;marker-start:none;marker-mid:none;marker-end:none;stroke-miterlimit:4;stroke-dashoffset:0;stroke-opacity:1;visibility:visible;display:inline;overflow:visible"/></g><g id="g8148" transform="translate(283.76777,-27.242641)"><path id="path8150" d="M 322.23865,334.14374 A 6.0609155,10.101525 0 1 1 310.11682,334.14374 A 6.0609155,10.101525 0 1 1 322.23865,334.14374 z" transform="translate(-435.44308,-107.02979)" style="fill:none;fill-opacity:1;fill-rule:nonzero;stroke:url(#linearGradient8154);stroke-width:4;stroke-linecap:butt;stroke-linejoin:miter;marker:none;marker-start:none;marker-mid:none;marker-end:none;stroke-miterlimit:4;stroke-dasharray:none;stroke-dashoffset:0;stroke-opacity:1;visibility:visible;display:inline;overflow:visible"/><path id="path8152" d="M -119.18323,237.34047 C -122.52885,237.34047 -125.24414,232.81499 -125.24414,227.23895 C -125.24414,221.66291 -122.52885,217.13742 -119.18323,217.13742" style="fill:none;fill-opacity:1;fill-rule:nonzero;stroke:url(#linearGradient8156);stroke-width:4;stroke-linecap:butt;stroke-linejoin:miter;marker:none;marker-start:none;marker-mid:none;marker-end:none;stroke-miterlimit:4;stroke-dashoffset:0;stroke-opacity:1;visibility:visible;display:inline;overflow:visible"/></g><path id="path2912" d="M 322.23865,334.14374 C 322.23865,339.71978 319.52336,344.24526 316.17773,344.24526 C 312.83211,344.24526 310.11682,339.71978 310.11682,334.14374 C 310.11682,328.5677 312.83211,324.04221 316.17773,324.04221 C 319.52336,324.04221 322.23865,328.5677 322.23865,334.14374 z" transform="translate(-161.67531,-134.27243)" style="fill:none;fill-opacity:1;fill-rule:nonzero;stroke:url(#linearGradient8134);stroke-width:4;stroke-linecap:butt;stroke-linejoin:miter;marker:none;marker-start:none;marker-mid:none;marker-end:none;stroke-miterlimit:4;stroke-dashoffset:0;stroke-opacity:1;visibility:visible;display:inline;overflow:visible"/><path id="path2526" d="M 153.72031,211.76584 C 154.81734,210.50404 155.49616,208.76122 155.49616,206.83715 C 155.49616,202.989 152.78087,199.86586 149.43524,199.86586 C 146.08962,199.86586 143.37433,202.989 143.37433,206.83715 C 143.37433,210.68529 146.08962,213.80843 149.43524,213.80843 L 187.79915,414.01625 L 195.56138,421.38907 L 195.67335,621.27543" style="fill:none;fill-opacity:.75;fill-rule:evenodd;stroke:#50505d;stroke-width:4;stroke-linecap:butt;stroke-linejoin:miter;stroke-miterlimit:4;stroke-opacity:1"/><path id="path2436" d="M 220.18833,622.90691 L 228.18833,620.90691 L 190.95093,620.90691 L 198.95093,622.90691 L 220.18833,622.90691 z" style="fill:#333;fill-opacity:1;fill-rule:nonzero;stroke:#6f5f5f;stroke-width:4;stroke-linecap:butt;stroke-linejoin:miter;marker:none;marker-start:none;marker-mid:none;marker-end:none;stroke-miterlimit:4;stroke-dashoffset:0;stroke-opacity:1;visibility:visible;display:inline;overflow:visible"/><path id="path2253" d="M 172.33223,606.90691 L 246.80703,606.90691 L 228.18833,616.90691 L 228.18833,618.90691 L 190.95093,618.90691 L 190.95093,616.90691 L 172.33223,606.90691 z" style="fill:#000;fill-opacity:1;fill-rule:nonzero;stroke:#000;stroke-width:4;stroke-linecap:butt;stroke-linejoin:miter;marker:none;marker-start:none;marker-mid:none;marker-end:none;stroke-miterlimit:4;stroke-dashoffset:0;stroke-opacity:1;visibility:visible;display:inline;overflow:visible"/><path id="path2222" d="M 152.12918,594.70386 L 172.33223,606.90691 L 246.80703,606.90691 L 266.80703,594.70386 L 266.80703,494.90691 L 272.47978,474.70386 L 146.71795,474.70386 L 152.06346,494.90691 L 152.12918,594.70386 z" style="fill:#c1c1c1;fill-opacity:1;fill-rule:nonzero;stroke:#000;stroke-width:4;stroke-linecap:butt;stroke-linejoin:miter;marker:none;marker-start:none;marker-mid:none;marker-end:none;stroke-miterlimit:4;stroke-dashoffset:0;stroke-opacity:1;visibility:visible;display:inline;overflow:visible"/><path id="path2237" d="M 152.06346,566.70386 L 266.80703,556.70386 L 272.80703,566.80538 L 266.80703,576.90691 L 152.06346,586.90691 L 146.06346,576.80538 L 152.06346,566.70386 z" style="fill:#c1c1c1;fill-opacity:1;fill-rule:nonzero;stroke:#000;stroke-width:4;stroke-linecap:butt;stroke-linejoin:miter;marker:none;marker-start:none;marker-mid:none;marker-end:none;stroke-miterlimit:4;stroke-dashoffset:0;stroke-opacity:1;visibility:visible;display:inline;overflow:visible"/><path id="path2235" d="M 152.06346,536.70386 L 266.80703,526.70386 L 272.80703,536.80538 L 266.80703,546.90691 L 152.06346,556.90691 L 146.06346,546.80538 L 152.06346,536.70386 z" style="fill:#c1c1c1;fill-opacity:1;fill-rule:nonzero;stroke:#000;stroke-width:4;stroke-linecap:butt;stroke-linejoin:miter;marker:none;marker-start:none;marker-mid:none;marker-end:none;stroke-miterlimit:4;stroke-dashoffset:0;stroke-opacity:1;visibility:visible;display:inline;overflow:visible"/><path id="path2226" d="M 152.06346,506.70386 L 266.80703,496.70386 L 272.80703,506.80538 L 266.80703,516.90691 L 152.06346,526.90691 L 146.06346,516.80538 L 152.06346,506.70386 z" style="fill:#c1c1c1;fill-opacity:1;fill-rule:nonzero;stroke:#000;stroke-width:4;stroke-linecap:butt;stroke-linejoin:miter;marker:none;marker-start:none;marker-mid:none;marker-end:none;stroke-miterlimit:4;stroke-dashoffset:0;stroke-opacity:1;visibility:visible;display:inline;overflow:visible"/><path id="path4153" d="M 152.06346,506.70386 L 266.80703,496.70386 L 272.80703,506.80538 L 266.80703,516.90691 L 152.06346,526.90691 L 146.06346,516.80538 L 152.06346,506.70386 z" style="opacity:.2;fill:#c1c1c1;fill-opacity:1;fill-rule:nonzero;stroke:#000;stroke-width:4;stroke-linecap:butt;stroke-linejoin:miter;marker:none;marker-start:none;marker-mid:none;marker-end:none;stroke-miterlimit:4;stroke-dashoffset:0;stroke-opacity:1;visibility:visible;display:inline;overflow:visible"/><path id="path4155" d="M 152.06346,566.70386 L 266.80703,556.70386 L 272.80703,566.80538 L 266.80703,576.90691 L 152.06346,586.90691 L 146.06346,576.80538 L 152.06346,566.70386 z" style="opacity:.2;fill:#c1c1c1;fill-opacity:1;fill-rule:nonzero;stroke:#000;stroke-width:4;stroke-linecap:butt;stroke-linejoin:miter;marker:none;marker-start:none;marker-mid:none;marker-end:none;stroke-miterlimit:4;stroke-dashoffset:0;stroke-opacity:1;visibility:visible;display:inline;overflow:visible"/><path id="path4157" d="M 152.06346,536.70386 L 266.80703,526.70386 L 272.80703,536.80538 L 266.80703,546.90691 L 152.06346,556.90691 L 146.06346,546.80538 L 152.06346,536.70386 z" style="opacity:.2;fill:#c1c1c1;fill-opacity:1;fill-rule:nonzero;stroke:#000;stroke-width:4;stroke-linecap:butt;stroke-linejoin:miter;marker:none;marker-start:none;marker-mid:none;marker-end:none;stroke-miterlimit:4;stroke-dashoffset:0;stroke-opacity:1;visibility:visible;display:inline;overflow:visible"/><path id="path4201" d="M 350.80577,151.18032 C 350.80577,215.91133 287.67684,268.44665 209.89297,268.44665 C 132.10911,268.44665 68.980184,215.91133 68.980184,151.18032 C 68.980184,86.449292 132.10911,33.91397 209.89297,33.91397 C 287.67684,33.91397 350.80577,86.449292 350.80577,151.18032 z" style="fill:url(#linearGradient5186);fill-opacity:1;fill-rule:evenodd;stroke:none;stroke-width:1;stroke-linecap:butt;stroke-linejoin:round;marker:none;marker-start:none;marker-mid:none;marker-end:none;stroke-miterlimit:4;stroke-dashoffset:0;stroke-opacity:1;visibility:visible;display:inline;overflow:visible;enable-background:accumulate"/><path id="path2953" d="M 154.58454,210.09783 C 151.23892,210.09783 148.52363,205.57235 148.52363,199.99631 C 148.52363,194.42027 151.23892,189.89478 154.58454,189.89478" style="fill:none;fill-opacity:1;fill-rule:nonzero;stroke:url(#linearGradient16807);stroke-width:4;stroke-linecap:butt;stroke-linejoin:miter;marker:none;marker-start:none;marker-mid:none;marker-end:none;stroke-miterlimit:4;stroke-dashoffset:0;stroke-opacity:1;visibility:visible;display:inline;overflow:visible"/><path id="path8250" d="M 322.23865,334.14374 C 322.23865,339.71978 319.52336,344.24526 316.17773,344.24526 C 312.83211,344.24526 310.11682,339.71978 310.11682,334.14374 C 310.11682,328.5677 312.83211,324.04221 316.17773,324.04221 C 319.52336,324.04221 322.23865,328.5677 322.23865,334.14374 z" transform="translate(-51.67531,-134.27243)" style="fill:none;fill-opacity:1;fill-rule:nonzero;stroke:url(#linearGradient8254);stroke-width:4;stroke-linecap:butt;stroke-linejoin:miter;marker:none;marker-start:none;marker-mid:none;marker-end:none;stroke-miterlimit:4;stroke-dashoffset:0;stroke-opacity:1;visibility:visible;display:inline;overflow:visible"/></g></g></svg>