<svg xmlns="http://www.w3.org/2000/svg" xmlns:svg="http://www.w3.org/2000/svg" id="svg2" width="32pt" height="32pt" version="1.0" viewBox="0 0 32 32"><metadata id="metadata66"/><rect style="fill:none;fill-opacity:.99215698;stroke:#6f84ee;stroke-width:1.59673464;stroke-linecap:round;stroke-linejoin:round;stroke-miterlimit:4;stroke-dasharray:none;stroke-opacity:.98999999" id="rect2441" width="28.003" height="27.847" x="1.806" y="2.031"/><path style="fill:none;fill-rule:evenodd;stroke:#6f84ee;stroke-width:1.60000002;stroke-linecap:butt;stroke-linejoin:miter;stroke-miterlimit:4;stroke-dasharray:none;stroke-opacity:.99215686" id="path3728" d="M 7.4077922,2.4242425 C 7.4077922,30.060606 7.4077922,30.12987 7.4077922,30.12987"/><path style="fill:none;fill-rule:evenodd;stroke:#6f84ee;stroke-width:1.60000002;stroke-linecap:butt;stroke-linejoin:miter;stroke-miterlimit:4;stroke-dasharray:none;stroke-opacity:.99215686" id="path3730" d="M 13.007792,2.4935066 C 13.007792,30.12987 13.007792,30.199134 13.007792,30.199134"/><path style="fill:none;fill-rule:evenodd;stroke:#6f84ee;stroke-width:1.60000002;stroke-linecap:butt;stroke-linejoin:miter;stroke-miterlimit:4;stroke-dasharray:none;stroke-opacity:.99215686" id="path3732" d="M 18.607792,2.3549784 C 18.607792,29.991341 18.607792,30.060605 18.607792,30.060605"/><path style="fill:none;fill-rule:evenodd;stroke:#6f84ee;stroke-width:1.60000002;stroke-linecap:butt;stroke-linejoin:miter;stroke-miterlimit:4;stroke-dasharray:none;stroke-opacity:.99215686" id="path3734" d="M 24.207792,2.3549784 C 24.207792,29.991342 24.207792,30.060606 24.207792,30.060606"/><g id="g3742" transform="matrix(0,1,-1,0,32.207792,1.0770563)"><path id="path3744" d="M 7.2,2.1471862 C 7.2,29.78355 7.2,29.852814 7.2,29.852814" style="fill:none;fill-rule:evenodd;stroke:#6f84ee;stroke-width:1.60000002;stroke-linecap:butt;stroke-linejoin:miter;stroke-miterlimit:4;stroke-dasharray:none;stroke-opacity:.99215686"/><path id="path3746" d="M 12.8,2.6320347 C 12.8,30.268398 12.8,30.337662 12.8,30.337662" style="fill:none;fill-rule:evenodd;stroke:#6f84ee;stroke-width:1.60000002;stroke-linecap:butt;stroke-linejoin:miter;stroke-miterlimit:4;stroke-dasharray:none;stroke-opacity:.99215686"/><path id="path3748" d="M 18.4,2.0779221 C 18.4,29.714285 18.4,29.783549 18.4,29.783549" style="fill:none;fill-rule:evenodd;stroke:#6f84ee;stroke-width:1.60000002;stroke-linecap:butt;stroke-linejoin:miter;stroke-miterlimit:4;stroke-dasharray:none;stroke-opacity:.99215686"/><path id="path3750" d="M 24,2.0779221 C 24,29.714286 24,29.78355 24,29.78355" style="fill:none;fill-rule:evenodd;stroke:#6f84ee;stroke-width:1.60000002;stroke-linecap:butt;stroke-linejoin:miter;stroke-miterlimit:4;stroke-dasharray:none;stroke-opacity:.99215686"/></g></svg>