<svg xmlns="http://www.w3.org/2000/svg" xmlns:svg="http://www.w3.org/2000/svg" id="svg49" width="128pt" height="128pt" viewBox="0 0 507.946 507.946" xml:space="preserve"><metadata id="metadata12"/><defs id="defs62"><radialGradient id="aigrd1" cx="218.94" cy="219.772" r="150.706" fx="218.94" fy="219.772" gradientTransform="matrix(1.4075408,0,0,1.4075408,-109.67328,-117.99924)" gradientUnits="userSpaceOnUse" style="stroke:#000;stroke-opacity:.986014;stroke-width:.981612"><stop style="stop-color:#73ffff;stroke:#000;stroke-opacity:.986014;stroke-width:.981612" id="stop53" offset="0"/><stop style="stop-color:#2ea6b9;stroke:#000;stroke-opacity:.986014;stroke-width:.981612" id="stop54" offset=".281"/><stop style="stop-color:#006b8b;stroke:#000;stroke-opacity:.986014;stroke-width:.981612" id="stop55" offset="1"/></radialGradient></defs><path style="font-size:12px;fill:#a4c9ee;fill-opacity:.7;stroke:none;stroke-width:.97926801;stroke-opacity:.98601403" id="path51" d="M 88.788901,252.51482 C 88.788901,340.38087 159.63077,411.87152 246.70685,411.87152 C 333.78033,411.87152 404.62481,340.38087 404.62481,252.51482 C 404.62481,164.64614 333.78033,93.159442 246.70685,93.159442 C 159.63077,93.159442 88.788901,164.64614 88.788901,252.51482 z"/><path style="font-size:12px;fill:url(#aigrd1);fill-rule:evenodd;stroke:#1c6671;stroke-width:10.88178253;stroke-opacity:.98823499" id="path56" d="M 392.31631,252.69915 C 392.31631,332.96699 327.24569,398.0376 246.97927,398.0376 C 166.71144,398.0376 101.64224,332.96839 101.64224,252.69915 C 101.64224,172.43132 166.71144,107.36212 246.97927,107.36212 C 327.24429,107.36212 392.31631,172.43132 392.31631,252.69915 z"/><path style="font-size:12px;opacity:1;fill:#fff;fill-opacity:.98999999;stroke:#1c6772;stroke-width:6.82998085;stroke-opacity:.98823499" id="path59" d="M 192.28653,293.00093 C 192.28653,293.00093 228.76199,292.35872 246.16216,292.05232 C 246.43284,307.41758 246.88135,332.96804 246.88135,332.96804 C 246.9463,336.66839 248.49834,340.09885 251.05907,342.57122 C 252.32762,343.79601 253.84261,344.78525 255.54743,345.45576 C 260.69506,347.4822 266.55682,346.21062 270.40031,342.22978 L 343.43427,266.58599 C 348.68213,261.1506 348.53012,252.49064 343.09472,247.24278 L 267.447,174.20502 C 263.46616,170.36153 257.5624,169.29551 252.48907,171.50136 C 247.41479,173.7082 244.17051,178.75627 244.26857,184.28744 C 244.26857,184.28744 244.71999,209.83881 244.98972,225.20506 C 227.58856,225.51051 191.11303,226.14885 191.11303,226.14885 C 187.4852,226.21157 184.03065,227.71372 181.51076,230.32366 C 178.99087,232.93359 177.61184,236.43774 177.67455,240.06558 L 178.3679,279.56442 C 178.43255,283.19223 179.93372,286.64582 182.54365,289.16571 C 185.15358,291.6856 188.65872,293.06558 192.28653,293.00093 L 192.28653,293.00093 z"/></svg>