<svg xmlns="http://www.w3.org/2000/svg" xmlns:svg="http://www.w3.org/2000/svg" id="svg2" width="720" height="720" version="1.1"><defs id="defs4"><linearGradient id="linearGradient3785"><stop id="stop3787" offset="0" style="stop-color:#000;stop-opacity:1"/><stop id="stop3789" offset="1" style="stop-color:#000;stop-opacity:0"/></linearGradient><linearGradient id="linearGradient3785-5"><stop id="stop3787-6" offset="0" style="stop-color:#000;stop-opacity:1"/><stop id="stop3789-6" offset="1" style="stop-color:#000;stop-opacity:0"/></linearGradient><linearGradient id="linearGradient3785-5-7"><stop id="stop3787-6-2" offset="0" style="stop-color:#000;stop-opacity:1"/><stop id="stop3789-6-4" offset="1" style="stop-color:#000;stop-opacity:0"/></linearGradient><linearGradient id="linearGradient3785-2"><stop id="stop3787-8" offset="0" style="stop-color:#000;stop-opacity:1"/><stop id="stop3789-4" offset="1" style="stop-color:#000;stop-opacity:0"/></linearGradient><linearGradient id="linearGradient3785-2-7"><stop id="stop3787-8-4" offset="0" style="stop-color:#000;stop-opacity:1"/><stop id="stop3789-4-3" offset="1" style="stop-color:#000;stop-opacity:0"/></linearGradient><linearGradient id="linearGradient3785-5-7-1"><stop id="stop3787-6-2-6" offset="0" style="stop-color:#000;stop-opacity:1"/><stop id="stop3789-6-4-2" offset="1" style="stop-color:#000;stop-opacity:0"/></linearGradient><linearGradient id="linearGradient3785-5-6"><stop id="stop3787-6-3" offset="0" style="stop-color:#000;stop-opacity:1"/><stop id="stop3789-6-6" offset="1" style="stop-color:#000;stop-opacity:0"/></linearGradient><linearGradient id="linearGradient3785-1"><stop id="stop3787-4" offset="0" style="stop-color:#000;stop-opacity:1"/><stop id="stop3789-7" offset="1" style="stop-color:#000;stop-opacity:0"/></linearGradient><linearGradient id="linearGradient3785-2-3"><stop id="stop3787-8-6" offset="0" style="stop-color:#000;stop-opacity:1"/><stop id="stop3789-4-8" offset="1" style="stop-color:#000;stop-opacity:0"/></linearGradient><linearGradient id="linearGradient3785-5-7-2"><stop id="stop3787-6-2-8" offset="0" style="stop-color:#000;stop-opacity:1"/><stop id="stop3789-6-4-9" offset="1" style="stop-color:#000;stop-opacity:0"/></linearGradient><linearGradient id="linearGradient3785-5-4"><stop id="stop3787-6-8" offset="0" style="stop-color:#000;stop-opacity:1"/><stop id="stop3789-6-1" offset="1" style="stop-color:#000;stop-opacity:0"/></linearGradient><linearGradient id="linearGradient3785-4"><stop id="stop3787-7" offset="0" style="stop-color:#000;stop-opacity:1"/><stop id="stop3789-75" offset="1" style="stop-color:#000;stop-opacity:0"/></linearGradient></defs><g id="layer1" transform="translate(0,-332.36218)"><path id="path2955" d="m 348.7292785644531,255.9116058349609 a 66.29833984375,66.29833984375 0 0 1 -66.29833984375,66.29833984375 l 0,-66.29833984375 z" transform="matrix(2.375625096664431,0,0,2.375625096664431,-468.4500260993967,-73.08785334922959)" style="fill:#f0f;fill-opacity:1;stroke:none"/><path id="path2957" d="m 348.7292785644531,255.9116058349609 a 66.29833984375,66.29833984375 0 0 1 -66.29833984375,66.29833984375 l 0,-66.29833984375 z" transform="matrix(-1.509157088646527e-16,-2.375625096664431,-2.375625096664431,1.509157088646527e-16,810.4500333492286,1363.312206099396)" style="fill:#8000ff;fill-opacity:1;stroke:none"/><path id="path2959" d="m 348.7292785644531,255.9116058349609 a 66.29833984375,66.29833984375 0 0 1 -66.29833984375,66.29833984375 l 0,-66.29833984375 z" transform="matrix(-1.509157088646527e-16,-2.375625096664431,-2.375625096664431,1.509157088646527e-16,967.9500333492286,1205.812206099396)" style="fill:#ff0080;fill-opacity:1;stroke:none"/><path id="path2961" d="m 348.7292785644531,255.9116058349609 a 66.29833984375,66.29833984375 0 0 1 -66.29833984375,66.29833984375 l 0,-66.29833984375 z" transform="matrix(1.509157088646527e-16,-2.375625096664431,2.375625096664431,1.509157088646527e-16,-247.950033349229,1205.812206099396)" style="fill:red;fill-opacity:1;stroke:none"/><path id="path2963" d="m 348.7292785644531,255.9116058349609 a 66.29833984375,66.29833984375 0 0 1 -66.29833984375,66.29833984375 l 0,-66.29833984375 z" transform="matrix(-1.509157088646527e-16,2.375625096664431,-2.375625096664431,-1.509157088646527e-16,1125.450033349229,-136.0878460993968)" style="fill:#ff8000;fill-opacity:1;stroke:none"/><path id="path2965" d="m 348.7292785644531,255.9116058349609 a 66.29833984375,66.29833984375 0 0 1 -66.29833984375,66.29833984375 l 0,-66.29833984375 z" transform="matrix(1.509157088646527e-16,-2.375625096664431,2.375625096664431,1.509157088646527e-16,-90.4500333492287,1363.312206099396)" style="fill:#ff0;fill-opacity:1;stroke:none"/><path id="path2967" d="m 348.7292785644531,255.9116058349609 a 66.29833984375,66.29833984375 0 0 1 -66.29833984375,66.29833984375 l 0,-66.29833984375 z" transform="matrix(2.375625096664431,0,0,2.375625096664431,-153.4500260993965,84.41214665077109)" style="fill:#80ff00;fill-opacity:1;stroke:none"/><path id="path2969" d="m 348.7292785644531,255.9116058349609 a 66.29833984375,66.29833984375 0 0 1 -66.29833984375,66.29833984375 l 0,-66.29833984375 z" transform="matrix(-1.509157088646527e-16,-2.375625096664431,-2.375625096664431,1.509157088646527e-16,1125.450033349229,1520.812206099396)" style="fill:#0f0;fill-opacity:1;stroke:none"/><path id="path2971" d="m 348.7292785644531,255.9116058349609 a 66.29833984375,66.29833984375 0 0 1 -66.29833984375,66.29833984375 l 0,-66.29833984375 z" transform="matrix(2.375625096664431,0,0,2.375625096664431,-310.9500260993965,241.9121466507713)" style="fill:#00ff80;fill-opacity:1;stroke:none"/><path id="path2973" d="m 348.7292785644531,255.9116058349609 a 66.29833984375,66.29833984375 0 0 1 -66.29833984375,66.29833984375 l 0,-66.29833984375 z" transform="matrix(-1.509157088646527e-16,2.375625096664431,-2.375625096664431,-1.509157088646527e-16,967.9500333492286,178.9121539006038)" style="fill:#0ff;fill-opacity:1;stroke:none"/><path id="path2975" d="m 348.7292785644531,255.9116058349609 a 66.29833984375,66.29833984375 0 0 1 -66.29833984375,66.29833984375 l 0,-66.29833984375 z" transform="matrix(1.509157088646527e-16,-2.375625096664431,2.375625096664431,1.509157088646527e-16,-405.450033349229,1520.812206099396)" style="fill:#0080ff;fill-opacity:1;stroke:none"/><path id="path2977" d="m 348.7292785644531,255.9116058349609 a 66.29833984375,66.29833984375 0 0 1 -66.29833984375,66.29833984375 l 0,-66.29833984375 z" transform="matrix(-1.509157088646527e-16,2.375625096664431,-2.375625096664431,-1.509157088646527e-16,810.4500333492286,21.41215390060301)" style="fill:#00f;fill-opacity:1;stroke:none"/></g></svg>